<svg id="visual" viewBox="0 0 900 600" width="900" height="600" xmlns="http://www.w3.org/2000/svg" xmlns:xlink="http://www.w3.org/1999/xlink" version="1.1"><g stroke-width="1" stroke-linejoin="bevel"><path d="M472 317L414 362L474 360Z" fill="#0c6f7e" stroke="#0c6f7e"></path><path d="M472 317L370 330L414 362Z" fill="#40a9bb" stroke="#40a9bb"></path><path d="M370 330L325 370L414 362Z" fill="#4baec0" stroke="#4baec0"></path><path d="M479 523L597 411L474 360Z" fill="#0e7f90" stroke="#0e7f90"></path><path d="M568 189L488 179L472 317Z" fill="#0c6f7e" stroke="#0c6f7e"></path><path d="M472 317L391 166L370 330Z" fill="#269eb2" stroke="#269eb2"></path><path d="M370 330L265 265L325 370Z" fill="#0c6f7e" stroke="#0c6f7e"></path><path d="M479 523L474 360L414 362Z" fill="#55b4c5" stroke="#55b4c5"></path><path d="M474 360L625 324L472 317Z" fill="#0e879a" stroke="#0e879a"></path><path d="M488 179L391 166L472 317Z" fill="#269eb2" stroke="#269eb2"></path><path d="M597 411L625 324L474 360Z" fill="#0d7787" stroke="#0d7787"></path><path d="M325 370L322 479L414 362Z" fill="#0f90a3" stroke="#0f90a3"></path><path d="M411 531L479 523L414 362Z" fill="#40a9bb" stroke="#40a9bb"></path><path d="M280 209L265 265L370 330Z" fill="#0d7787" stroke="#0d7787"></path><path d="M325 370L211 381L322 479Z" fill="#0c6f7e" stroke="#0c6f7e"></path><path d="M322 479L411 531L414 362Z" fill="#0d7787" stroke="#0d7787"></path><path d="M625 324L568 189L472 317Z" fill="#55b4c5" stroke="#55b4c5"></path><path d="M488 179L478 137L391 166Z" fill="#0e879a" stroke="#0e879a"></path><path d="M568 189L478 137L488 179Z" fill="#34a3b6" stroke="#34a3b6"></path><path d="M391 166L280 209L370 330Z" fill="#40a9bb" stroke="#40a9bb"></path><path d="M169 211L223 334L265 265Z" fill="#0d7787" stroke="#0d7787"></path><path d="M265 265L223 334L325 370Z" fill="#0f90a3" stroke="#0f90a3"></path><path d="M697 398L676 321L625 324Z" fill="#4baec0" stroke="#4baec0"></path><path d="M625 324L678 212L568 189Z" fill="#0c6f7e" stroke="#0c6f7e"></path><path d="M223 334L211 381L325 370Z" fill="#1098ad" stroke="#1098ad"></path><path d="M391 166L333 126L280 209Z" fill="#0e879a" stroke="#0e879a"></path><path d="M437 75L333 126L391 166Z" fill="#40a9bb" stroke="#40a9bb"></path><path d="M597 411L697 398L625 324Z" fill="#0d7787" stroke="#0d7787"></path><path d="M663 517L697 398L597 411Z" fill="#34a3b6" stroke="#34a3b6"></path><path d="M411 531L429 600L479 523Z" fill="#4baec0" stroke="#4baec0"></path><path d="M479 523L636 523L597 411Z" fill="#34a3b6" stroke="#34a3b6"></path><path d="M269 600L429 600L411 531Z" fill="#0e879a" stroke="#0e879a"></path><path d="M269 600L411 531L322 479Z" fill="#0f90a3" stroke="#0f90a3"></path><path d="M500 0L437 75L478 137Z" fill="#0c6f7e" stroke="#0c6f7e"></path><path d="M478 137L437 75L391 166Z" fill="#269eb2" stroke="#269eb2"></path><path d="M604 600L636 523L479 523Z" fill="#269eb2" stroke="#269eb2"></path><path d="M429 600L500 600L479 523Z" fill="#0f90a3" stroke="#0f90a3"></path><path d="M676 321L678 212L625 324Z" fill="#4baec0" stroke="#4baec0"></path><path d="M568 189L593 91L478 137Z" fill="#0d7787" stroke="#0d7787"></path><path d="M792 218L678 212L676 321Z" fill="#0e879a" stroke="#0e879a"></path><path d="M604 600L663 517L636 523Z" fill="#0f90a3" stroke="#0f90a3"></path><path d="M636 523L663 517L597 411Z" fill="#1098ad" stroke="#1098ad"></path><path d="M678 212L593 91L568 189Z" fill="#0e879a" stroke="#0e879a"></path><path d="M211 381L194 509L322 479Z" fill="#0e7f90" stroke="#0e7f90"></path><path d="M280 209L169 211L265 265Z" fill="#55b4c5" stroke="#55b4c5"></path><path d="M223 334L63 302L211 381Z" fill="#269eb2" stroke="#269eb2"></path><path d="M62 403L113 538L194 509Z" fill="#40a9bb" stroke="#40a9bb"></path><path d="M216 88L169 211L280 209Z" fill="#55b4c5" stroke="#55b4c5"></path><path d="M500 600L604 600L479 523Z" fill="#0c6f7e" stroke="#0c6f7e"></path><path d="M194 509L269 600L322 479Z" fill="#34a3b6" stroke="#34a3b6"></path><path d="M194 509L232 600L269 600Z" fill="#0d7787" stroke="#0d7787"></path><path d="M761 479L778 360L697 398Z" fill="#0e7f90" stroke="#0e7f90"></path><path d="M697 398L778 360L676 321Z" fill="#55b4c5" stroke="#55b4c5"></path><path d="M761 479L697 398L663 517Z" fill="#0f90a3" stroke="#0f90a3"></path><path d="M333 0L216 88L333 126Z" fill="#0d7787" stroke="#0d7787"></path><path d="M333 126L216 88L280 209Z" fill="#0d7787" stroke="#0d7787"></path><path d="M500 0L432 0L437 75Z" fill="#1098ad" stroke="#1098ad"></path><path d="M437 75L333 0L333 126Z" fill="#0d7787" stroke="#0d7787"></path><path d="M216 88L138 188L169 211Z" fill="#1098ad" stroke="#1098ad"></path><path d="M169 211L63 302L223 334Z" fill="#0d7787" stroke="#0d7787"></path><path d="M593 91L500 0L478 137Z" fill="#0e7f90" stroke="#0e7f90"></path><path d="M723 600L761 479L663 517Z" fill="#55b4c5" stroke="#55b4c5"></path><path d="M432 0L333 0L437 75Z" fill="#55b4c5" stroke="#55b4c5"></path><path d="M712 80L593 91L678 212Z" fill="#0e7f90" stroke="#0e7f90"></path><path d="M689 0L585 0L593 91Z" fill="#34a3b6" stroke="#34a3b6"></path><path d="M593 91L585 0L500 0Z" fill="#269eb2" stroke="#269eb2"></path><path d="M812 274L792 218L676 321Z" fill="#0e879a" stroke="#0e879a"></path><path d="M792 218L712 80L678 212Z" fill="#269eb2" stroke="#269eb2"></path><path d="M900 372L812 274L778 360Z" fill="#40a9bb" stroke="#40a9bb"></path><path d="M778 360L812 274L676 321Z" fill="#0c6f7e" stroke="#0c6f7e"></path><path d="M604 600L723 600L663 517Z" fill="#0c6f7e" stroke="#0c6f7e"></path><path d="M138 188L63 302L169 211Z" fill="#0c6f7e" stroke="#0c6f7e"></path><path d="M194 509L113 538L232 600Z" fill="#1098ad" stroke="#1098ad"></path><path d="M62 403L194 509L211 381Z" fill="#4baec0" stroke="#4baec0"></path><path d="M63 302L62 403L211 381Z" fill="#4baec0" stroke="#4baec0"></path><path d="M138 188L0 203L63 302Z" fill="#55b4c5" stroke="#55b4c5"></path><path d="M216 88L89 116L138 188Z" fill="#4baec0" stroke="#4baec0"></path><path d="M124 0L89 116L216 88Z" fill="#34a3b6" stroke="#34a3b6"></path><path d="M791 0L689 0L712 80Z" fill="#0e879a" stroke="#0e879a"></path><path d="M712 80L689 0L593 91Z" fill="#269eb2" stroke="#269eb2"></path><path d="M723 600L783 600L761 479Z" fill="#34a3b6" stroke="#34a3b6"></path><path d="M761 479L900 372L778 360Z" fill="#0f90a3" stroke="#0f90a3"></path><path d="M333 0L179 0L216 88Z" fill="#0e879a" stroke="#0e879a"></path><path d="M0 203L0 314L63 302Z" fill="#40a9bb" stroke="#40a9bb"></path><path d="M63 302L0 314L62 403Z" fill="#0d7787" stroke="#0d7787"></path><path d="M62 403L0 437L113 538Z" fill="#0e7f90" stroke="#0e7f90"></path><path d="M0 314L0 437L62 403Z" fill="#0e879a" stroke="#0e879a"></path><path d="M900 98L822 86L792 218Z" fill="#4baec0" stroke="#4baec0"></path><path d="M792 218L822 86L712 80Z" fill="#0e7f90" stroke="#0e7f90"></path><path d="M900 496L900 372L761 479Z" fill="#34a3b6" stroke="#34a3b6"></path><path d="M812 274L900 236L792 218Z" fill="#34a3b6" stroke="#34a3b6"></path><path d="M0 529L66 600L113 538Z" fill="#0e879a" stroke="#0e879a"></path><path d="M113 538L66 600L232 600Z" fill="#0e879a" stroke="#0e879a"></path><path d="M900 372L900 275L812 274Z" fill="#0d7787" stroke="#0d7787"></path><path d="M89 116L0 203L138 188Z" fill="#55b4c5" stroke="#55b4c5"></path><path d="M0 91L0 203L89 116Z" fill="#0e7f90" stroke="#0e7f90"></path><path d="M179 0L124 0L216 88Z" fill="#4baec0" stroke="#4baec0"></path><path d="M900 275L900 236L812 274Z" fill="#0f90a3" stroke="#0f90a3"></path><path d="M0 437L0 529L113 538Z" fill="#55b4c5" stroke="#55b4c5"></path><path d="M783 600L900 496L761 479Z" fill="#0f90a3" stroke="#0f90a3"></path><path d="M900 0L791 0L822 86Z" fill="#34a3b6" stroke="#34a3b6"></path><path d="M822 86L791 0L712 80Z" fill="#55b4c5" stroke="#55b4c5"></path><path d="M0 0L0 91L89 116Z" fill="#40a9bb" stroke="#40a9bb"></path><path d="M0 529L0 600L66 600Z" fill="#0c6f7e" stroke="#0c6f7e"></path><path d="M900 236L900 98L792 218Z" fill="#0d7787" stroke="#0d7787"></path><path d="M783 600L900 600L900 496Z" fill="#269eb2" stroke="#269eb2"></path><path d="M124 0L0 0L89 116Z" fill="#1098ad" stroke="#1098ad"></path><path d="M900 98L900 0L822 86Z" fill="#269eb2" stroke="#269eb2"></path></g></svg>