<svg id="visual" viewBox="0 0 900 675" width="900" height="675" xmlns="http://www.w3.org/2000/svg" xmlns:xlink="http://www.w3.org/1999/xlink" version="1.1"><path d="M0 15L13.7 18.3C27.3 21.7 54.7 28.3 82 30.5C109.3 32.7 136.7 30.3 163.8 29.2C191 28 218 28 245.2 30.3C272.3 32.7 299.7 37.3 327 37.3C354.3 37.3 381.7 32.7 409 33.7C436.3 34.7 463.7 41.3 491 39.2C518.3 37 545.7 26 573 21.5C600.3 17 627.7 19 654.8 21.2C682 23.3 709 25.7 736.2 30.2C763.3 34.7 790.7 41.3 818 42.5C845.3 43.7 872.7 39.3 886.3 37.2L900 35L900 0L886.3 0C872.7 0 845.3 0 818 0C790.7 0 763.3 0 736.2 0C709 0 682 0 654.8 0C627.7 0 600.3 0 573 0C545.7 0 518.3 0 491 0C463.7 0 436.3 0 409 0C381.7 0 354.3 0 327 0C299.7 0 272.3 0 245.2 0C218 0 191 0 163.8 0C136.7 0 109.3 0 82 0C54.7 0 27.3 0 13.7 0L0 0Z" fill="#fef6ea"></path><path d="M0 55L13.7 57.3C27.3 59.7 54.7 64.3 82 67.7C109.3 71 136.7 73 163.8 73C191 73 218 71 245.2 74.5C272.3 78 299.7 87 327 83.5C354.3 80 381.7 64 409 60.5C436.3 57 463.7 66 491 67.2C518.3 68.3 545.7 61.7 573 64C600.3 66.3 627.7 77.7 654.8 80C682 82.3 709 75.7 736.2 74.5C763.3 73.3 790.7 77.7 818 77.7C845.3 77.7 872.7 73.3 886.3 71.2L900 69L900 33L886.3 35.2C872.7 37.3 845.3 41.7 818 40.5C790.7 39.3 763.3 32.7 736.2 28.2C709 23.7 682 21.3 654.8 19.2C627.7 17 600.3 15 573 19.5C545.7 24 518.3 35 491 37.2C463.7 39.3 436.3 32.7 409 31.7C381.7 30.7 354.3 35.3 327 35.3C299.7 35.3 272.3 30.7 245.2 28.3C218 26 191 26 163.8 27.2C136.7 28.3 109.3 30.7 82 28.5C54.7 26.3 27.3 19.7 13.7 16.3L0 13Z" fill="#fef4e5"></path><path d="M0 109L13.7 106.8C27.3 104.7 54.7 100.3 82 98.2C109.3 96 136.7 96 163.8 96C191 96 218 96 245.2 100.5C272.3 105 299.7 114 327 112.8C354.3 111.7 381.7 100.3 409 102.5C436.3 104.7 463.7 120.3 491 119.2C518.3 118 545.7 100 573 96.7C600.3 93.3 627.7 104.7 654.8 112.5C682 120.3 709 124.7 736.2 128C763.3 131.3 790.7 133.7 818 128.2C845.3 122.7 872.7 109.3 886.3 102.7L900 96L900 67L886.3 69.2C872.7 71.3 845.3 75.7 818 75.7C790.7 75.7 763.3 71.3 736.2 72.5C709 73.7 682 80.3 654.8 78C627.7 75.7 600.3 64.3 573 62C545.7 59.7 518.3 66.3 491 65.2C463.7 64 436.3 55 409 58.5C381.7 62 354.3 78 327 81.5C299.7 85 272.3 76 245.2 72.5C218 69 191 71 163.8 71C136.7 71 109.3 69 82 65.7C54.7 62.3 27.3 57.7 13.7 55.3L0 53Z" fill="#fdf2e0"></path><path d="M0 291L13.7 275.3C27.3 259.7 54.7 228.3 82 237.3C109.3 246.3 136.7 295.7 163.8 310.3C191 325 218 305 245.2 300.5C272.3 296 299.7 307 327 289C354.3 271 381.7 224 409 206C436.3 188 463.7 199 491 205.7C518.3 212.3 545.7 214.7 573 229.3C600.3 244 627.7 271 654.8 287.8C682 304.7 709 311.3 736.2 303.5C763.3 295.7 790.7 273.3 818 256.5C845.3 239.7 872.7 228.3 886.3 222.7L900 217L900 94L886.3 100.7C872.7 107.3 845.3 120.7 818 126.2C790.7 131.7 763.3 129.3 736.2 126C709 122.7 682 118.3 654.8 110.5C627.7 102.7 600.3 91.3 573 94.7C545.7 98 518.3 116 491 117.2C463.7 118.3 436.3 102.7 409 100.5C381.7 98.3 354.3 109.7 327 110.8C299.7 112 272.3 103 245.2 98.5C218 94 191 94 163.8 94C136.7 94 109.3 94 82 96.2C54.7 98.3 27.3 102.7 13.7 104.8L0 107Z" fill="#fdeed4"></path><path d="M0 332L13.7 314C27.3 296 54.7 260 82 265.7C109.3 271.3 136.7 318.7 163.8 336.7C191 354.7 218 343.3 245.2 341C272.3 338.7 299.7 345.3 327 322.8C354.3 300.3 381.7 248.7 409 227.3C436.3 206 463.7 215 491 221.7C518.3 228.3 545.7 232.7 573 252.8C600.3 273 627.7 309 654.8 327C682 345 709 345 736.2 335C763.3 325 790.7 305 818 286C845.3 267 872.7 249 886.3 240L900 231L900 215L886.3 220.7C872.7 226.3 845.3 237.7 818 254.5C790.7 271.3 763.3 293.7 736.2 301.5C709 309.3 682 302.7 654.8 285.8C627.7 269 600.3 242 573 227.3C545.7 212.7 518.3 210.3 491 203.7C463.7 197 436.3 186 409 204C381.7 222 354.3 269 327 287C299.7 305 272.3 294 245.2 298.5C218 303 191 323 163.8 308.3C136.7 293.7 109.3 244.3 82 235.3C54.7 226.3 27.3 257.7 13.7 273.3L0 289Z" fill="#fce8c6"></path><path d="M0 366L13.7 345.7C27.3 325.3 54.7 284.7 82 289.2C109.3 293.7 136.7 343.3 163.8 361.3C191 379.3 218 365.7 245.2 362.2C272.3 358.7 299.7 365.3 327 344C354.3 322.7 381.7 273.3 409 253.2C436.3 233 463.7 242 491 249.8C518.3 257.7 545.7 264.3 573 285.7C600.3 307 627.7 343 654.8 357.7C682 372.3 709 365.7 736.2 354.5C763.3 343.3 790.7 327.7 818 310.8C845.3 294 872.7 276 886.3 267L900 258L900 229L886.3 238C872.7 247 845.3 265 818 284C790.7 303 763.3 323 736.2 333C709 343 682 343 654.8 325C627.7 307 600.3 271 573 250.8C545.7 230.7 518.3 226.3 491 219.7C463.7 213 436.3 204 409 225.3C381.7 246.7 354.3 298.3 327 320.8C299.7 343.3 272.3 336.7 245.2 339C218 341.3 191 352.7 163.8 334.7C136.7 316.7 109.3 269.3 82 263.7C54.7 258 27.3 294 13.7 312L0 330Z" fill="#fce6c1"></path><path d="M0 406L13.7 391.3C27.3 376.7 54.7 347.3 82 351.8C109.3 356.3 136.7 394.7 163.8 416.2C191 437.7 218 442.3 245.2 436.7C272.3 431 299.7 415 327 384.5C354.3 354 381.7 309 409 299C436.3 289 463.7 314 491 320.8C518.3 327.7 545.7 316.3 573 330.8C600.3 345.3 627.7 385.7 654.8 401.3C682 417 709 408 736.2 396.8C763.3 385.7 790.7 372.3 818 364.5C845.3 356.7 872.7 354.3 886.3 353.2L900 352L900 256L886.3 265C872.7 274 845.3 292 818 308.8C790.7 325.7 763.3 341.3 736.2 352.5C709 363.7 682 370.3 654.8 355.7C627.7 341 600.3 305 573 283.7C545.7 262.3 518.3 255.7 491 247.8C463.7 240 436.3 231 409 251.2C381.7 271.3 354.3 320.7 327 342C299.7 363.3 272.3 356.7 245.2 360.2C218 363.7 191 377.3 163.8 359.3C136.7 341.3 109.3 291.7 82 287.2C54.7 282.7 27.3 323.3 13.7 343.7L0 364Z" fill="#fce6c1"></path><path d="M0 514L13.7 490.3C27.3 466.7 54.7 419.3 82 416C109.3 412.7 136.7 453.3 163.8 471.3C191 489.3 218 484.7 245.2 477.8C272.3 471 299.7 462 327 447.5C354.3 433 381.7 413 409 406.3C436.3 399.7 463.7 406.3 491 413C518.3 419.7 545.7 426.3 573 435.3C600.3 444.3 627.7 455.7 654.8 458C682 460.3 709 453.7 736.2 450.3C763.3 447 790.7 447 818 439C845.3 431 872.7 415 886.3 407L900 399L900 350L886.3 351.2C872.7 352.3 845.3 354.7 818 362.5C790.7 370.3 763.3 383.7 736.2 394.8C709 406 682 415 654.8 399.3C627.7 383.7 600.3 343.3 573 328.8C545.7 314.3 518.3 325.7 491 318.8C463.7 312 436.3 287 409 297C381.7 307 354.3 352 327 382.5C299.7 413 272.3 429 245.2 434.7C218 440.3 191 435.7 163.8 414.2C136.7 392.7 109.3 354.3 82 349.8C54.7 345.3 27.3 374.7 13.7 389.3L0 404Z" fill="#fce8c6"></path><path d="M0 555L13.7 533.5C27.3 512 54.7 469 82 463.3C109.3 457.7 136.7 489.3 163.8 507.3C191 525.3 218 529.7 245.2 529.7C272.3 529.7 299.7 525.3 327 514.2C354.3 503 381.7 485 409 478.2C436.3 471.3 463.7 475.7 491 476.7C518.3 477.7 545.7 475.3 573 483.3C600.3 491.3 627.7 509.7 654.8 509.7C682 509.7 709 491.3 736.2 486.8C763.3 482.3 790.7 491.7 818 488.3C845.3 485 872.7 469 886.3 461L900 453L900 397L886.3 405C872.7 413 845.3 429 818 437C790.7 445 763.3 445 736.2 448.3C709 451.7 682 458.3 654.8 456C627.7 453.7 600.3 442.3 573 433.3C545.7 424.3 518.3 417.7 491 411C463.7 404.3 436.3 397.7 409 404.3C381.7 411 354.3 431 327 445.5C299.7 460 272.3 469 245.2 475.8C218 482.7 191 487.3 163.8 469.3C136.7 451.3 109.3 410.7 82 414C54.7 417.3 27.3 464.7 13.7 488.3L0 512Z" fill="#fdeed4"></path><path d="M0 595L13.7 573.7C27.3 552.3 54.7 509.7 82 503C109.3 496.3 136.7 525.7 163.8 542.5C191 559.3 218 563.7 245.2 560.2C272.3 556.7 299.7 545.3 327 533C354.3 520.7 381.7 507.3 409 504C436.3 500.7 463.7 507.3 491 509.5C518.3 511.7 545.7 509.3 573 516.2C600.3 523 627.7 539 654.8 539C682 539 709 523 736.2 516.2C763.3 509.3 790.7 511.7 818 508.3C845.3 505 872.7 496 886.3 491.5L900 487L900 451L886.3 459C872.7 467 845.3 483 818 486.3C790.7 489.7 763.3 480.3 736.2 484.8C709 489.3 682 507.7 654.8 507.7C627.7 507.7 600.3 489.3 573 481.3C545.7 473.3 518.3 475.7 491 474.7C463.7 473.7 436.3 469.3 409 476.2C381.7 483 354.3 501 327 512.2C299.7 523.3 272.3 527.7 245.2 527.7C218 527.7 191 523.3 163.8 505.3C136.7 487.3 109.3 455.7 82 461.3C54.7 467 27.3 510 13.7 531.5L0 553Z" fill="#fdf2e0"></path><path d="M0 656L13.7 652.7C27.3 649.3 54.7 642.7 82 639.3C109.3 636 136.7 636 163.8 639.3C191 642.7 218 649.3 245.2 649.3C272.3 649.3 299.7 642.7 327 643.8C354.3 645 381.7 654 409 658.5C436.3 663 463.7 663 491 658.5C518.3 654 545.7 645 573 645C600.3 645 627.7 654 654.8 655C682 656 709 649 736.2 644.5C763.3 640 790.7 638 818 639.2C845.3 640.3 872.7 644.7 886.3 646.8L900 649L900 485L886.3 489.5C872.7 494 845.3 503 818 506.3C790.7 509.7 763.3 507.3 736.2 514.2C709 521 682 537 654.8 537C627.7 537 600.3 521 573 514.2C545.7 507.3 518.3 509.7 491 507.5C463.7 505.3 436.3 498.7 409 502C381.7 505.3 354.3 518.7 327 531C299.7 543.3 272.3 554.7 245.2 558.2C218 561.7 191 557.3 163.8 540.5C136.7 523.7 109.3 494.3 82 501C54.7 507.7 27.3 550.3 13.7 571.7L0 593Z" fill="#fef4e5"></path><path d="M0 676L13.7 676C27.3 676 54.7 676 82 676C109.3 676 136.7 676 163.8 676C191 676 218 676 245.2 676C272.3 676 299.7 676 327 676C354.3 676 381.7 676 409 676C436.3 676 463.7 676 491 676C518.3 676 545.7 676 573 676C600.3 676 627.7 676 654.8 676C682 676 709 676 736.2 676C763.3 676 790.7 676 818 676C845.3 676 872.7 676 886.3 676L900 676L900 647L886.3 644.8C872.7 642.7 845.3 638.3 818 637.2C790.7 636 763.3 638 736.2 642.5C709 647 682 654 654.8 653C627.7 652 600.3 643 573 643C545.7 643 518.3 652 491 656.5C463.7 661 436.3 661 409 656.5C381.7 652 354.3 643 327 641.8C299.7 640.7 272.3 647.3 245.2 647.3C218 647.3 191 640.7 163.8 637.3C136.7 634 109.3 634 82 637.3C54.7 640.7 27.3 647.3 13.7 650.7L0 654Z" fill="#fef6ea"></path></svg>