<svg id="visual" viewBox="0 0 900 600" width="900" height="600" xmlns="http://www.w3.org/2000/svg" xmlns:xlink="http://www.w3.org/1999/xlink" version="1.1"><path d="M0 55L82 73L164 115L245 79L327 103L409 109L491 121L573 127L655 127L736 103L818 97L900 109L900 0L818 0L736 0L655 0L573 0L491 0L409 0L327 0L245 0L164 0L82 0L0 0Z" fill="#00cc8e"></path><path d="M0 139L82 151L164 199L245 145L327 205L409 211L491 187L573 211L655 175L736 169L818 199L900 163L900 107L818 95L736 101L655 125L573 125L491 119L409 107L327 101L245 77L164 113L82 71L0 53Z" fill="#00b98a"></path><path d="M0 193L82 271L164 259L245 229L327 241L409 295L491 313L573 301L655 253L736 223L818 283L900 259L900 161L818 197L736 167L655 173L573 209L491 185L409 209L327 203L245 143L164 197L82 149L0 137Z" fill="#00a784"></path><path d="M0 313L82 463L164 415L245 343L327 469L409 451L491 493L573 379L655 349L736 439L818 511L900 421L900 257L818 281L736 221L655 251L573 299L491 311L409 293L327 239L245 227L164 257L82 269L0 191Z" fill="#00957c"></path><path d="M0 601L82 601L164 601L245 601L327 601L409 601L491 601L573 601L655 601L736 601L818 601L900 601L900 419L818 509L736 437L655 347L573 377L491 491L409 449L327 467L245 341L164 413L82 461L0 311Z" fill="#038373"></path></svg>