<svg id="visual" viewBox="0 0 900 675" width="900" height="675" xmlns="http://www.w3.org/2000/svg" xmlns:xlink="http://www.w3.org/1999/xlink" version="1.1"><rect x="0" y="0" width="900" height="675" fill="#087f5b"></rect><path d="M0 240L21.5 227.2C43 214.3 86 188.7 128.8 180.7C171.7 172.7 214.3 182.3 257.2 178.2C300 174 343 156 385.8 163.5C428.7 171 471.3 204 514.2 222.3C557 240.7 600 244.3 642.8 228.2C685.7 212 728.3 176 771.2 168.3C814 160.7 857 181.3 878.5 191.7L900 202L900 0L878.5 0C857 0 814 0 771.2 0C728.3 0 685.7 0 642.8 0C600 0 557 0 514.2 0C471.3 0 428.7 0 385.8 0C343 0 300 0 257.2 0C214.3 0 171.7 0 128.8 0C86 0 43 0 21.5 0L0 0Z" fill="#009473" stroke-linecap="round" stroke-linejoin="miter"></path></svg>